<svg width="186" height="32" viewBox="0 0 186 32" fill="none" xmlns="http://www.w3.org/2000/svg">
<g opacity="0.8">
<path d="M35.5002 28C34.2006 28 33.4 27.4 32.0918 26.6934C30.7836 25.9867 27 23.1416 27 19.6C27 17.1975 26.3806 15.2543 25.3259 13.7057C24.2791 12.169 22.8609 11.1043 21.3855 10.3527C20.6746 9.99064 19.9347 9.69452 19.198 9.4498C18.7685 9.30724 18.5193 8.84608 18.7056 8.4338C19.8867 5.81916 22.517 4 25.5724 4C29.7316 4 33.1035 7.37168 33.1035 11.531C33.1035 12.4209 32.9492 13.2748 32.6658 14.0672C33.8662 13.2582 35.3126 12.7861 36.869 12.7861C41.0282 12.7861 44.3998 16.1578 44.3998 20.3172C44.3998 25.3244 39.9998 28 35.5002 28Z" fill="#8FB2F5"/>
<path d="M8 19.6896C8 23.6593 10.6172 26.967 14.0844 27.6978C14.6195 27.8933 15.1973 28 15.8 28H27.501C27.8934 28 28.0642 27.4752 27.7646 27.2217C25.7197 25.4914 24.2 23.0529 24.2 19.6C24.2 17.7027 23.7195 16.3209 23.0117 15.282C22.2959 14.2312 21.2891 13.4459 20.1146 12.8475C18.9293 12.2437 17.6424 11.8591 16.4135 11.5865C16.124 11.55 15.8295 11.531 15.531 11.531C11.3717 11.531 8 15.1838 8 19.6896Z" fill="#8FB2F5"/>
<path d="M55.1663 24.1732C54.7766 24.1732 54.4591 24.0794 54.2137 23.8917C53.9828 23.7041 53.7951 23.4082 53.6508 23.0041L49.1258 10.2084C48.967 9.74656 48.9959 9.35685 49.2124 9.0393C49.4433 8.72176 49.8258 8.56298 50.3599 8.56298C50.7496 8.56298 51.0527 8.6568 51.2692 8.84444C51.4857 9.01765 51.6589 9.29911 51.7888 9.68883L55.686 21.2503H54.8199L58.8903 9.71048C59.0346 9.32076 59.215 9.03208 59.4316 8.84444C59.6481 8.6568 59.9295 8.56298 60.2759 8.56298C60.6223 8.56298 60.8966 8.6568 61.0987 8.84444C61.3007 9.03208 61.4739 9.32798 61.6183 9.73213L65.5587 21.2503H64.8009L68.763 9.68883C68.8929 9.31354 69.0662 9.03208 69.2827 8.84444C69.4992 8.6568 69.7951 8.56298 70.1703 8.56298C70.6322 8.56298 70.9714 8.72176 71.1879 9.0393C71.4044 9.35685 71.4333 9.74656 71.2745 10.2084L66.7062 23.0257C66.5619 23.4154 66.3742 23.7041 66.1433 23.8917C65.9124 24.0794 65.602 24.1732 65.2123 24.1732C64.8226 24.1732 64.5123 24.0794 64.2813 23.8917C64.0504 23.7041 63.8627 23.4082 63.7184 23.0041L59.9512 12.2653H60.4491L56.6386 23.0257C56.4943 23.4154 56.3066 23.7041 56.0757 23.8917C55.8592 24.0794 55.5561 24.1732 55.1663 24.1732ZM77.5052 24.2165C76.3072 24.2165 75.2752 23.9928 74.4092 23.5453C73.5431 23.0979 72.872 22.4628 72.3956 21.6401C71.9338 20.8173 71.7028 19.843 71.7028 18.7172C71.7028 17.6202 71.9265 16.6604 72.374 15.8377C72.8359 15.0149 73.4637 14.3726 74.2576 13.9107C75.0659 13.4344 75.9825 13.1963 77.0073 13.1963C77.7578 13.1963 78.429 13.3189 79.0208 13.5643C79.627 13.8097 80.1394 14.1633 80.558 14.6252C80.991 15.0871 81.3158 15.65 81.5323 16.314C81.7632 16.9635 81.8787 17.6996 81.8787 18.5223C81.8787 18.7822 81.7849 18.9842 81.5972 19.1286C81.424 19.2585 81.1714 19.3234 80.8394 19.3234H73.8895V17.7646H79.9734L79.627 18.0893C79.627 17.4254 79.526 16.8697 79.3239 16.4222C79.1363 15.9748 78.8548 15.6356 78.4795 15.4046C78.1187 15.1593 77.664 15.0366 77.1155 15.0366C76.5093 15.0366 75.9897 15.1809 75.5567 15.4696C75.1381 15.7438 74.8133 16.1408 74.5824 16.6604C74.3659 17.1656 74.2576 17.7718 74.2576 18.479V18.6306C74.2576 19.8142 74.5319 20.7019 75.0803 21.2937C75.6433 21.871 76.466 22.1597 77.5485 22.1597C77.9238 22.1597 78.3424 22.1164 78.8043 22.0298C79.2806 21.9287 79.728 21.7628 80.1466 21.5318C80.4497 21.3586 80.7168 21.2864 80.9477 21.3153C81.1786 21.3297 81.3591 21.4091 81.489 21.5535C81.6333 21.6978 81.7199 21.8782 81.7488 22.0947C81.7777 22.2968 81.7343 22.5061 81.6189 22.7226C81.5178 22.9391 81.3374 23.1268 81.0776 23.2855C80.5724 23.6031 79.9879 23.8412 79.3239 24C78.6744 24.1443 78.0681 24.2165 77.5052 24.2165ZM87.5077 24.2165C86.7427 24.2165 86.0571 24.0722 85.4509 23.7835C84.8591 23.4804 84.39 23.0762 84.0436 22.571C83.7116 22.0659 83.5456 21.4957 83.5456 20.8606C83.5456 20.0812 83.7477 19.4678 84.1519 19.0203C84.556 18.5584 85.2127 18.2265 86.1221 18.0244C87.0314 17.8223 88.2511 17.7213 89.7811 17.7213H90.8636V19.2801H89.8027C88.9078 19.2801 88.1933 19.3234 87.6593 19.41C87.1252 19.4966 86.7427 19.6482 86.5118 19.8647C86.2953 20.0668 86.187 20.3554 86.187 20.7307C86.187 21.207 86.353 21.5968 86.685 21.8999C87.017 22.203 87.4789 22.3545 88.0706 22.3545C88.547 22.3545 88.9655 22.2463 89.3264 22.0298C89.7017 21.7988 89.9976 21.4885 90.2141 21.0988C90.4306 20.7091 90.5388 20.2616 90.5388 19.7564V17.2666C90.5388 16.5449 90.3801 16.0253 90.0625 15.7077C89.745 15.3902 89.2109 15.2314 88.4604 15.2314C88.0418 15.2314 87.5871 15.2819 87.0964 15.383C86.62 15.484 86.1149 15.6572 85.5808 15.9026C85.3066 16.0325 85.0612 16.0686 84.8447 16.0109C84.6426 15.9531 84.4838 15.8377 84.3684 15.6644C84.2529 15.4768 84.1952 15.2747 84.1952 15.0582C84.1952 14.8417 84.2529 14.6324 84.3684 14.4303C84.4838 14.2138 84.6787 14.0551 84.9529 13.954C85.6169 13.6798 86.252 13.4849 86.8582 13.3695C87.4789 13.254 88.0418 13.1963 88.547 13.1963C89.5862 13.1963 90.4378 13.355 91.1018 13.6726C91.7801 13.9901 92.2853 14.4737 92.6173 15.1232C92.9493 15.7583 93.1153 16.581 93.1153 17.5914V22.7876C93.1153 23.235 93.007 23.5814 92.7905 23.8268C92.574 24.0577 92.2637 24.1732 91.8595 24.1732C91.4554 24.1732 91.1378 24.0577 90.9069 23.8268C90.6904 23.5814 90.5821 23.235 90.5821 22.7876V21.7483H90.7553C90.6543 22.2535 90.4522 22.6937 90.1491 23.069C89.8604 23.4299 89.4924 23.7113 89.0449 23.9134C88.5975 24.1155 88.0851 24.2165 87.5077 24.2165ZM100.712 24.2165C99.7738 24.2165 98.9872 24.0577 98.3521 23.7402C97.7314 23.4226 97.2695 22.9608 96.9664 22.3545C96.6633 21.7339 96.5118 20.9689 96.5118 20.0596V15.4479H95.3859C95.0395 15.4479 94.7725 15.3613 94.5848 15.1881C94.3972 15.0005 94.3034 14.7479 94.3034 14.4303C94.3034 14.0984 94.3972 13.8458 94.5848 13.6726C94.7725 13.4994 95.0395 13.4128 95.3859 13.4128H96.5118V11.4425C96.5118 10.9951 96.6272 10.6559 96.8582 10.425C97.1035 10.194 97.4427 10.0785 97.8758 10.0785C98.3088 10.0785 98.6407 10.194 98.8717 10.425C99.1026 10.6559 99.2181 10.9951 99.2181 11.4425V13.4128H101.513C101.859 13.4128 102.127 13.4994 102.314 13.6726C102.502 13.8458 102.596 14.0984 102.596 14.4303C102.596 14.7479 102.502 15.0005 102.314 15.1881C102.127 15.3613 101.859 15.4479 101.513 15.4479H99.2181V19.908C99.2181 20.6008 99.3697 21.1204 99.6728 21.4669C99.9759 21.8133 100.467 21.9865 101.145 21.9865C101.39 21.9865 101.607 21.9648 101.795 21.9215C101.982 21.8782 102.148 21.8494 102.293 21.8349C102.466 21.8205 102.61 21.8782 102.726 22.0081C102.841 22.1236 102.899 22.369 102.899 22.7443C102.899 23.0329 102.848 23.2927 102.747 23.5237C102.661 23.7402 102.495 23.8917 102.249 23.9783C102.062 24.0361 101.816 24.0866 101.513 24.1299C101.21 24.1876 100.943 24.2165 100.712 24.2165ZM105.789 24.1732C105.356 24.1732 105.024 24.0577 104.793 23.8268C104.562 23.5814 104.446 23.235 104.446 22.7876V9.92698C104.446 9.47953 104.562 9.14034 104.793 8.9094C105.024 8.67845 105.356 8.56298 105.789 8.56298C106.222 8.56298 106.554 8.67845 106.785 8.9094C107.03 9.14034 107.153 9.47953 107.153 9.92698V15.5345H106.85C107.167 14.7695 107.658 14.1922 108.322 13.8025C109 13.3983 109.765 13.1963 110.617 13.1963C111.468 13.1963 112.169 13.355 112.717 13.6726C113.266 13.9901 113.677 14.4737 113.951 15.1232C114.225 15.7583 114.362 16.5666 114.362 17.5481V22.7876C114.362 23.235 114.247 23.5814 114.016 23.8268C113.785 24.0577 113.453 24.1732 113.02 24.1732C112.587 24.1732 112.248 24.0577 112.003 23.8268C111.772 23.5814 111.656 23.235 111.656 22.7876V17.678C111.656 16.8552 111.497 16.2562 111.18 15.881C110.877 15.5057 110.4 15.318 109.751 15.318C108.957 15.318 108.322 15.5706 107.846 16.0758C107.384 16.5666 107.153 17.2233 107.153 18.046V22.7876C107.153 23.7113 106.698 24.1732 105.789 24.1732ZM122.329 24.2165C121.131 24.2165 120.099 23.9928 119.233 23.5453C118.367 23.0979 117.696 22.4628 117.22 21.6401C116.758 20.8173 116.527 19.843 116.527 18.7172C116.527 17.6202 116.75 16.6604 117.198 15.8377C117.66 15.0149 118.288 14.3726 119.082 13.9107C119.89 13.4344 120.806 13.1963 121.831 13.1963C122.582 13.1963 123.253 13.3189 123.845 13.5643C124.451 13.8097 124.963 14.1633 125.382 14.6252C125.815 15.0871 126.14 15.65 126.356 16.314C126.587 16.9635 126.703 17.6996 126.703 18.5223C126.703 18.7822 126.609 18.9842 126.421 19.1286C126.248 19.2585 125.995 19.3234 125.663 19.3234H118.713V17.7646H124.797L124.451 18.0893C124.451 17.4254 124.35 16.8697 124.148 16.4222C123.96 15.9748 123.679 15.6356 123.303 15.4046C122.943 15.1593 122.488 15.0366 121.939 15.0366C121.333 15.0366 120.814 15.1809 120.381 15.4696C119.962 15.7438 119.637 16.1408 119.406 16.6604C119.19 17.1656 119.082 17.7718 119.082 18.479V18.6306C119.082 19.8142 119.356 20.7019 119.904 21.2937C120.467 21.871 121.29 22.1597 122.372 22.1597C122.748 22.1597 123.166 22.1164 123.628 22.0298C124.105 21.9287 124.552 21.7628 124.971 21.5318C125.274 21.3586 125.541 21.2864 125.772 21.3153C126.003 21.3297 126.183 21.4091 126.313 21.5535C126.457 21.6978 126.544 21.8782 126.573 22.0947C126.602 22.2968 126.558 22.5061 126.443 22.7226C126.342 22.9391 126.161 23.1268 125.902 23.2855C125.396 23.6031 124.812 23.8412 124.148 24C123.498 24.1443 122.892 24.2165 122.329 24.2165ZM130.232 24.1732C129.784 24.1732 129.438 24.0577 129.192 23.8268C128.961 23.5814 128.846 23.235 128.846 22.7876V14.6036C128.846 14.1561 128.961 13.8169 129.192 13.586C129.423 13.355 129.748 13.2396 130.167 13.2396C130.585 13.2396 130.91 13.355 131.141 13.586C131.372 13.8169 131.487 14.1561 131.487 14.6036V15.9676H131.271C131.473 15.1015 131.87 14.4448 132.462 13.9973C133.053 13.5499 133.84 13.2829 134.821 13.1963C135.125 13.1674 135.363 13.2468 135.536 13.4344C135.724 13.6076 135.832 13.8819 135.861 14.2571C135.89 14.618 135.803 14.9139 135.601 15.1448C135.413 15.3613 135.125 15.4912 134.735 15.5345L134.259 15.5778C133.378 15.6644 132.714 15.9387 132.267 16.4006C131.819 16.848 131.596 17.4831 131.596 18.3058V22.7876C131.596 23.235 131.48 23.5814 131.249 23.8268C131.018 24.0577 130.679 24.1732 130.232 24.1732ZM143.614 24.1732C143.267 24.1732 142.986 24.0938 142.769 23.935C142.567 23.7763 142.444 23.567 142.401 23.3072C142.358 23.0329 142.408 22.7298 142.553 22.3978L148.268 9.73213C148.456 9.31354 148.68 9.01765 148.94 8.84444C149.214 8.6568 149.524 8.56298 149.871 8.56298C150.203 8.56298 150.499 8.6568 150.758 8.84444C151.033 9.01765 151.264 9.31354 151.451 9.73213L157.189 22.3978C157.347 22.7298 157.405 23.0329 157.362 23.3072C157.319 23.5814 157.196 23.7979 156.994 23.9567C156.792 24.101 156.525 24.1732 156.193 24.1732C155.789 24.1732 155.471 24.0794 155.24 23.8917C155.024 23.6897 154.829 23.3866 154.655 22.9824L153.248 19.7131L154.417 20.4709H145.281L146.45 19.7131L145.064 22.9824C144.877 23.401 144.682 23.7041 144.48 23.8917C144.278 24.0794 143.989 24.1732 143.614 24.1732ZM149.827 11.7457L146.796 18.9554L146.233 18.2625H153.465L152.923 18.9554L149.871 11.7457H149.827ZM160.656 28.0703C160.223 28.0703 159.891 27.9549 159.66 27.7239C159.429 27.493 159.313 27.1538 159.313 26.7063V14.6036C159.313 14.1561 159.429 13.8169 159.66 13.586C159.891 13.355 160.216 13.2396 160.634 13.2396C161.067 13.2396 161.399 13.355 161.63 13.586C161.861 13.8169 161.976 14.1561 161.976 14.6036V16.2923L161.738 15.6428C161.955 14.9067 162.395 14.3149 163.059 13.8674C163.737 13.42 164.524 13.1963 165.419 13.1963C166.343 13.1963 167.151 13.42 167.844 13.8674C168.551 14.3149 169.1 14.95 169.489 15.7727C169.879 16.581 170.074 17.5553 170.074 18.6956C170.074 19.8214 169.879 20.8029 169.489 21.6401C169.1 22.4628 168.558 23.0979 167.865 23.5453C167.173 23.9928 166.357 24.2165 165.419 24.2165C164.538 24.2165 163.766 24 163.102 23.567C162.438 23.1195 161.991 22.5422 161.76 21.8349H162.02V26.7063C162.02 27.1538 161.897 27.493 161.652 27.7239C161.421 27.9549 161.089 28.0703 160.656 28.0703ZM164.661 22.1597C165.195 22.1597 165.664 22.0298 166.068 21.77C166.473 21.5102 166.783 21.1277 166.999 20.6225C167.23 20.1029 167.346 19.4606 167.346 18.6956C167.346 17.5408 167.1 16.682 166.61 16.1191C166.119 15.5418 165.469 15.2531 164.661 15.2531C164.127 15.2531 163.658 15.383 163.254 15.6428C162.85 15.8882 162.532 16.2707 162.301 16.7903C162.085 17.2955 161.976 17.9306 161.976 18.6956C161.976 19.8358 162.222 20.7019 162.713 21.2937C163.203 21.871 163.853 22.1597 164.661 22.1597ZM173.638 28.0703C173.205 28.0703 172.873 27.9549 172.642 27.7239C172.411 27.493 172.295 27.1538 172.295 26.7063V14.6036C172.295 14.1561 172.411 13.8169 172.642 13.586C172.873 13.355 173.198 13.2396 173.616 13.2396C174.049 13.2396 174.381 13.355 174.612 13.586C174.843 13.8169 174.958 14.1561 174.958 14.6036V16.2923L174.72 15.6428C174.937 14.9067 175.377 14.3149 176.041 13.8674C176.719 13.42 177.506 13.1963 178.401 13.1963C179.325 13.1963 180.133 13.42 180.826 13.8674C181.533 14.3149 182.082 14.95 182.471 15.7727C182.861 16.581 183.056 17.5553 183.056 18.6956C183.056 19.8214 182.861 20.8029 182.471 21.6401C182.082 22.4628 181.54 23.0979 180.848 23.5453C180.155 23.9928 179.339 24.2165 178.401 24.2165C177.521 24.2165 176.748 24 176.084 23.567C175.42 23.1195 174.973 22.5422 174.742 21.8349H175.002V26.7063C175.002 27.1538 174.879 27.493 174.634 27.7239C174.403 27.9549 174.071 28.0703 173.638 28.0703ZM177.643 22.1597C178.177 22.1597 178.646 22.0298 179.05 21.77C179.455 21.5102 179.765 21.1277 179.981 20.6225C180.212 20.1029 180.328 19.4606 180.328 18.6956C180.328 17.5408 180.083 16.682 179.592 16.1191C179.101 15.5418 178.451 15.2531 177.643 15.2531C177.109 15.2531 176.64 15.383 176.236 15.6428C175.832 15.8882 175.514 16.2707 175.283 16.7903C175.067 17.2955 174.958 17.9306 174.958 18.6956C174.958 19.8358 175.204 20.7019 175.695 21.2937C176.185 21.871 176.835 22.1597 177.643 22.1597Z" fill="#BFBFD4"/>
</g>
</svg>
