<svg width="56" height="56" viewBox="0 0 56 56" fill="none" xmlns="http://www.w3.org/2000/svg">
<rect width="56" height="56" rx="8" fill="#1E1E29"/>
<g opacity="0.8">
<path d="M35.665 37.7803C34.5939 37.7803 33.9341 37.2858 32.8559 36.7034C31.7777 36.121 28.6593 33.7761 28.6593 30.8572C28.6593 28.8771 28.1489 27.2755 27.2796 25.9992C26.4168 24.7327 25.248 23.8552 24.032 23.2358C23.446 22.9374 22.8363 22.6933 22.2291 22.4916C21.8751 22.3741 21.6697 21.994 21.8233 21.6542C22.7967 19.4993 24.9645 18 27.4828 18C30.9107 18 33.6897 20.7789 33.6897 24.2069C33.6897 24.9403 33.5625 25.6441 33.3289 26.2972C34.3183 25.6304 35.5104 25.2413 36.7932 25.2413C40.2211 25.2413 42.9999 28.0202 42.9999 31.4483C42.9999 35.5751 39.3735 37.7803 35.665 37.7803Z" fill="#8FB2F5"/>
<path d="M13 30.9312C13 34.2029 15.157 36.929 18.0146 37.5314C18.4557 37.6925 18.9319 37.7804 19.4286 37.7804H29.0723C29.3957 37.7804 29.5365 37.3479 29.2896 37.1389C27.6042 35.7129 26.3517 33.7031 26.3517 30.8573C26.3517 29.2936 25.9557 28.1547 25.3724 27.2985C24.7824 26.4325 23.9526 25.7852 22.9846 25.292C22.0077 24.7944 20.9471 24.4774 19.9342 24.2527C19.6957 24.2226 19.4529 24.207 19.2069 24.207C15.7789 24.207 13 27.2175 13 30.9312Z" fill="#8FB2F5"/>
</g>
</svg>
